#N canvas 50 50 450 300 12;
#X obj 100 75 r smoke;
#X msg 200 75 bang \, display foo \, display . \, display bang \, symbol foo \, symbol . \, symbol bang;
#X obj 600 75 t a a;
#X obj 650 75 print;
#X obj 100 200 canvasname -1000;
#X obj 125 225 canvasname 1000;
#X obj 150 250 canvasname -1;
#X obj 175 275 canvasname 1;
#X obj 200 300 canvasname 0;
#X obj 225 325 canvasname;
#X connect 0 0 1 0;
#X connect 1 0 2 0;
#X connect 2 1 3 0;
#X connect 2 0 4 0;
#X connect 2 0 5 0;
#X connect 2 0 6 0;
#X connect 2 0 7 0;
#X connect 2 0 8 0;
#X connect 2 0 9 0