#N canvas 50 50 450 300 12;
#X obj 100 75 r smoke;
#X msg 200 75 bang \, inconnect 0 \, inconnect 1 \, inconnect -1 \, inconnect 1000 \, inconnect -1000 \, inlet 0 \, inlet 1 \, inlet -1 \, inlet 1000 \, inlet -1000 \, inlets \, outconnect 0 \, outconnect 1 \, outconnect -1 \, outconnect 1000 \, outconnect -1000 \, outlet 0 \, outlet 1 \, outlet -1 \, outlet 1000 \, outlet -1000 \, outlets;
#X obj 600 75 t a a;
#X obj 650 75 print;
#X obj 100 200 canvasconnections -1000;
#X obj 125 225 canvasconnections 1000;
#X obj 150 250 canvasconnections -1;
#X obj 175 275 canvasconnections 1;
#X obj 200 300 canvasconnections 0;
#X obj 225 325 canvasconnections;
#X connect 0 0 1 0;
#X connect 1 0 2 0;
#X connect 2 1 3 0;
#X connect 2 0 4 0;
#X connect 2 0 5 0;
#X connect 2 0 6 0;
#X connect 2 0 7 0;
#X connect 2 0 8 0;
#X connect 2 0 9 0