#N canvas 50 50 450 300 12;
#X obj 100 75 r smoke;
#X msg 200 75 loadbang \, loadbang 0 \, loadbang 1 \, loadbang -1 \, loadbang 1000 \, loadbang -1000;
#X obj 600 75 t a a;
#X obj 650 75 print;
#X obj 100 200 closebang;
#X connect 0 0 1 0;
#X connect 1 0 2 0;
#X connect 2 1 3 0;
#X connect 2 0 4 0