#N canvas 50 50 450 300 12;
#X obj 100 75 r smoke;
#X msg 200 75 bang;
#X obj 600 75 t a a;
#X obj 650 75 print;
#X obj 100 200 objectrename bang bang;
#X obj 125 225 objectrename bang .;
#X obj 150 250 objectrename bang foo;
#X obj 175 275 objectrename . bang;
#X obj 200 300 objectrename . .;
#X obj 225 325 objectrename . foo;
#X obj 250 350 objectrename foo bang;
#X obj 275 375 objectrename foo .;
#X obj 300 400 objectrename foo foo;
#X connect 0 0 1 0;
#X connect 1 0 2 0;
#X connect 2 1 3 0;
#X connect 2 0 4 0;
#X connect 2 0 5 0;
#X connect 2 0 6 0;
#X connect 2 0 7 0;
#X connect 2 0 8 0;
#X connect 2 0 9 0;
#X connect 2 0 10 0;
#X connect 2 0 11 0;
#X connect 2 0 12 0