#N canvas 50 50 450 300 12;
#X obj 100 75 r smoke;
#X msg 200 75 float 0 \, float 1 \, float -1 \, float 1000 \, float -1000 \, symbol foo \, symbol . \, symbol bang;
#X obj 600 75 t a a;
#X obj 650 75 print;
#X obj 100 200 oreceive bang -1000;
#X obj 125 225 oreceive bang 1000;
#X obj 150 250 oreceive bang -1;
#X obj 175 275 oreceive bang 1;
#X obj 200 300 oreceive bang 0;
#X obj 225 325 oreceive bang;
#X obj 250 350 oreceive . -1000;
#X obj 275 375 oreceive . 1000;
#X obj 300 400 oreceive . -1;
#X obj 325 425 oreceive . 1;
#X obj 350 450 oreceive . 0;
#X obj 375 475 oreceive .;
#X obj 400 500 oreceive foo -1000;
#X obj 425 525 oreceive foo 1000;
#X obj 450 550 oreceive foo -1;
#X obj 475 575 oreceive foo 1;
#X obj 500 600 oreceive foo 0;
#X obj 525 625 oreceive foo;
#X obj 550 650 oreceive -1000;
#X obj 575 675 oreceive 1000;
#X obj 600 700 oreceive -1;
#X obj 625 725 oreceive 1;
#X obj 650 750 oreceive 0;
#X obj 675 775 oreceive;
#X connect 0 0 1 0;
#X connect 1 0 2 0;
#X connect 2 1 3 0;
#X connect 2 0 4 0;
#X connect 2 0 5 0;
#X connect 2 0 6 0;
#X connect 2 0 7 0;
#X connect 2 0 8 0;
#X connect 2 0 9 0;
#X connect 2 0 10 0;
#X connect 2 0 11 0;
#X connect 2 0 12 0;
#X connect 2 0 13 0;
#X connect 2 0 14 0;
#X connect 2 0 15 0;
#X connect 2 0 16 0;
#X connect 2 0 17 0;
#X connect 2 0 18 0;
#X connect 2 0 19 0;
#X connect 2 0 20 0;
#X connect 2 0 21 0;
#X connect 2 0 22 0;
#X connect 2 0 23 0;
#X connect 2 0 24 0;
#X connect 2 0 25 0;
#X connect 2 0 26 0;
#X connect 2 0 27 0