#N canvas 50 50 450 300 12;
#X obj 100 75 r smoke;
#X msg 200 75 bang;
#X obj 600 75 t a a;
#X obj 650 75 print;
#X obj 100 200 try bang bang bang;
#X obj 125 225 try bang bang .;
#X obj 150 250 try bang bang foo;
#X obj 175 275 try bang bang -1000;
#X obj 200 300 try bang bang 1000;
#X obj 225 325 try bang bang -1;
#X obj 250 350 try bang bang 1;
#X obj 275 375 try bang bang 0;
#X obj 300 400 try bang . bang;
#X obj 325 425 try bang . .;
#X obj 350 450 try bang . foo;
#X obj 375 475 try bang . -1000;
#X obj 400 500 try bang . 1000;
#X obj 425 525 try bang . -1;
#X obj 450 550 try bang . 1;
#X obj 475 575 try bang . 0;
#X obj 500 600 try bang foo bang;
#X obj 525 625 try bang foo .;
#X obj 550 650 try bang foo foo;
#X obj 575 675 try bang foo -1000;
#X obj 600 700 try bang foo 1000;
#X obj 625 725 try bang foo -1;
#X obj 650 750 try bang foo 1;
#X obj 675 775 try bang foo 0;
#X obj 700 800 try bang -1000 bang;
#X obj 725 825 try bang -1000 .;
#X obj 750 850 try bang -1000 foo;
#X obj 775 875 try bang -1000 -1000;
#X obj 800 900 try bang -1000 1000;
#X obj 825 925 try bang -1000 -1;
#X obj 850 950 try bang -1000 1;
#X obj 875 975 try bang -1000 0;
#X obj 900 1000 try bang 1000 bang;
#X obj 925 1025 try bang 1000 .;
#X obj 950 1050 try bang 1000 foo;
#X obj 975 1075 try bang 1000 -1000;
#X obj 1000 1100 try bang 1000 1000;
#X obj 1025 1125 try bang 1000 -1;
#X obj 1050 1150 try bang 1000 1;
#X obj 1075 1175 try bang 1000 0;
#X obj 1100 1200 try bang -1 bang;
#X obj 1125 1225 try bang -1 .;
#X obj 1150 1250 try bang -1 foo;
#X obj 1175 1275 try bang -1 -1000;
#X obj 1200 1300 try bang -1 1000;
#X obj 1225 1325 try bang -1 -1;
#X obj 1250 1350 try bang -1 1;
#X obj 1275 1375 try bang -1 0;
#X obj 1300 1400 try bang 1 bang;
#X obj 1325 1425 try bang 1 .;
#X obj 1350 1450 try bang 1 foo;
#X obj 1375 1475 try bang 1 -1000;
#X obj 1400 1500 try bang 1 1000;
#X obj 1425 1525 try bang 1 -1;
#X obj 1450 1550 try bang 1 1;
#X obj 1475 1575 try bang 1 0;
#X obj 1500 1600 try bang 0 bang;
#X obj 1525 1625 try bang 0 .;
#X obj 1550 1650 try bang 0 foo;
#X obj 1575 1675 try bang 0 -1000;
#X obj 1600 1700 try bang 0 1000;
#X obj 1625 1725 try bang 0 -1;
#X obj 1650 1750 try bang 0 1;
#X obj 1675 1775 try bang 0 0;
#X obj 1700 1800 try . bang bang;
#X obj 1725 1825 try . bang .;
#X obj 1750 1850 try . bang foo;
#X obj 1775 1875 try . bang -1000;
#X obj 1800 1900 try . bang 1000;
#X obj 1825 1925 try . bang -1;
#X obj 1850 1950 try . bang 1;
#X obj 1875 1975 try . bang 0;
#X obj 1900 2000 try . . bang;
#X obj 1925 2025 try . . .;
#X obj 1950 2050 try . . foo;
#X obj 1975 2075 try . . -1000;
#X obj 2000 2100 try . . 1000;
#X obj 2025 2125 try . . -1;
#X obj 2050 2150 try . . 1;
#X obj 2075 2175 try . . 0;
#X obj 2100 2200 try . foo bang;
#X obj 2125 2225 try . foo .;
#X obj 2150 2250 try . foo foo;
#X obj 2175 2275 try . foo -1000;
#X obj 2200 2300 try . foo 1000;
#X obj 2225 2325 try . foo -1;
#X obj 2250 2350 try . foo 1;
#X obj 2275 2375 try . foo 0;
#X obj 2300 2400 try . -1000 bang;
#X obj 2325 2425 try . -1000 .;
#X obj 2350 2450 try . -1000 foo;
#X obj 2375 2475 try . -1000 -1000;
#X obj 2400 2500 try . -1000 1000;
#X obj 2425 2525 try . -1000 -1;
#X obj 2450 2550 try . -1000 1;
#X obj 2475 2575 try . -1000 0;
#X obj 2500 2600 try . 1000 bang;
#X obj 2525 2625 try . 1000 .;
#X obj 2550 2650 try . 1000 foo;
#X obj 2575 2675 try . 1000 -1000;
#X obj 2600 2700 try . 1000 1000;
#X obj 2625 2725 try . 1000 -1;
#X obj 2650 2750 try . 1000 1;
#X obj 2675 2775 try . 1000 0;
#X obj 2700 2800 try . -1 bang;
#X obj 2725 2825 try . -1 .;
#X obj 2750 2850 try . -1 foo;
#X obj 2775 2875 try . -1 -1000;
#X obj 2800 2900 try . -1 1000;
#X obj 2825 2925 try . -1 -1;
#X obj 2850 2950 try . -1 1;
#X obj 2875 2975 try . -1 0;
#X obj 2900 3000 try . 1 bang;
#X obj 2925 3025 try . 1 .;
#X obj 2950 3050 try . 1 foo;
#X obj 2975 3075 try . 1 -1000;
#X obj 3000 3100 try . 1 1000;
#X obj 3025 3125 try . 1 -1;
#X obj 3050 3150 try . 1 1;
#X obj 3075 3175 try . 1 0;
#X obj 3100 3200 try . 0 bang;
#X obj 3125 3225 try . 0 .;
#X obj 3150 3250 try . 0 foo;
#X obj 3175 3275 try . 0 -1000;
#X obj 3200 3300 try . 0 1000;
#X obj 3225 3325 try . 0 -1;
#X obj 3250 3350 try . 0 1;
#X obj 3275 3375 try . 0 0;
#X obj 3300 3400 try foo bang bang;
#X obj 3325 3425 try foo bang .;
#X obj 3350 3450 try foo bang foo;
#X obj 3375 3475 try foo bang -1000;
#X obj 3400 3500 try foo bang 1000;
#X obj 3425 3525 try foo bang -1;
#X obj 3450 3550 try foo bang 1;
#X obj 3475 3575 try foo bang 0;
#X obj 3500 3600 try foo . bang;
#X obj 3525 3625 try foo . .;
#X obj 3550 3650 try foo . foo;
#X obj 3575 3675 try foo . -1000;
#X obj 3600 3700 try foo . 1000;
#X obj 3625 3725 try foo . -1;
#X obj 3650 3750 try foo . 1;
#X obj 3675 3775 try foo . 0;
#X obj 3700 3800 try foo foo bang;
#X obj 3725 3825 try foo foo .;
#X obj 3750 3850 try foo foo foo;
#X obj 3775 3875 try foo foo -1000;
#X obj 3800 3900 try foo foo 1000;
#X obj 3825 3925 try foo foo -1;
#X obj 3850 3950 try foo foo 1;
#X obj 3875 3975 try foo foo 0;
#X obj 3900 4000 try foo -1000 bang;
#X obj 3925 4025 try foo -1000 .;
#X obj 3950 4050 try foo -1000 foo;
#X obj 3975 4075 try foo -1000 -1000;
#X obj 4000 4100 try foo -1000 1000;
#X obj 4025 4125 try foo -1000 -1;
#X obj 4050 4150 try foo -1000 1;
#X obj 4075 4175 try foo -1000 0;
#X obj 4100 4200 try foo 1000 bang;
#X obj 4125 4225 try foo 1000 .;
#X obj 4150 4250 try foo 1000 foo;
#X obj 4175 4275 try foo 1000 -1000;
#X obj 4200 4300 try foo 1000 1000;
#X obj 4225 4325 try foo 1000 -1;
#X obj 4250 4350 try foo 1000 1;
#X obj 4275 4375 try foo 1000 0;
#X obj 4300 4400 try foo -1 bang;
#X obj 4325 4425 try foo -1 .;
#X obj 4350 4450 try foo -1 foo;
#X obj 4375 4475 try foo -1 -1000;
#X obj 4400 4500 try foo -1 1000;
#X obj 4425 4525 try foo -1 -1;
#X obj 4450 4550 try foo -1 1;
#X obj 4475 4575 try foo -1 0;
#X obj 4500 4600 try foo 1 bang;
#X obj 4525 4625 try foo 1 .;
#X obj 4550 4650 try foo 1 foo;
#X obj 4575 4675 try foo 1 -1000;
#X obj 4600 4700 try foo 1 1000;
#X obj 4625 4725 try foo 1 -1;
#X obj 4650 4750 try foo 1 1;
#X obj 4675 4775 try foo 1 0;
#X obj 4700 4800 try foo 0 bang;
#X obj 4725 4825 try foo 0 .;
#X obj 4750 4850 try foo 0 foo;
#X obj 4775 4875 try foo 0 -1000;
#X obj 4800 4900 try foo 0 1000;
#X obj 4825 4925 try foo 0 -1;
#X obj 4850 4950 try foo 0 1;
#X obj 4875 4975 try foo 0 0;
#X obj 4900 5000 try -1000 bang bang;
#X obj 4925 5025 try -1000 bang .;
#X obj 4950 5050 try -1000 bang foo;
#X obj 4975 5075 try -1000 bang -1000;
#X obj 5000 5100 try -1000 bang 1000;
#X obj 5025 5125 try -1000 bang -1;
#X obj 5050 5150 try -1000 bang 1;
#X obj 5075 5175 try -1000 bang 0;
#X obj 5100 5200 try -1000 . bang;
#X obj 5125 5225 try -1000 . .;
#X obj 5150 5250 try -1000 . foo;
#X obj 5175 5275 try -1000 . -1000;
#X obj 5200 5300 try -1000 . 1000;
#X obj 5225 5325 try -1000 . -1;
#X obj 5250 5350 try -1000 . 1;
#X obj 5275 5375 try -1000 . 0;
#X obj 5300 5400 try -1000 foo bang;
#X obj 5325 5425 try -1000 foo .;
#X obj 5350 5450 try -1000 foo foo;
#X obj 5375 5475 try -1000 foo -1000;
#X obj 5400 5500 try -1000 foo 1000;
#X obj 5425 5525 try -1000 foo -1;
#X obj 5450 5550 try -1000 foo 1;
#X obj 5475 5575 try -1000 foo 0;
#X obj 5500 5600 try -1000 -1000 bang;
#X obj 5525 5625 try -1000 -1000 .;
#X obj 5550 5650 try -1000 -1000 foo;
#X obj 5575 5675 try -1000 -1000 -1000;
#X obj 5600 5700 try -1000 -1000 1000;
#X obj 5625 5725 try -1000 -1000 -1;
#X obj 5650 5750 try -1000 -1000 1;
#X obj 5675 5775 try -1000 -1000 0;
#X obj 5700 5800 try -1000 1000 bang;
#X obj 5725 5825 try -1000 1000 .;
#X obj 5750 5850 try -1000 1000 foo;
#X obj 5775 5875 try -1000 1000 -1000;
#X obj 5800 5900 try -1000 1000 1000;
#X obj 5825 5925 try -1000 1000 -1;
#X obj 5850 5950 try -1000 1000 1;
#X obj 5875 5975 try -1000 1000 0;
#X obj 5900 6000 try -1000 -1 bang;
#X obj 5925 6025 try -1000 -1 .;
#X obj 5950 6050 try -1000 -1 foo;
#X obj 5975 6075 try -1000 -1 -1000;
#X obj 6000 6100 try -1000 -1 1000;
#X obj 6025 6125 try -1000 -1 -1;
#X obj 6050 6150 try -1000 -1 1;
#X obj 6075 6175 try -1000 -1 0;
#X obj 6100 6200 try -1000 1 bang;
#X obj 6125 6225 try -1000 1 .;
#X obj 6150 6250 try -1000 1 foo;
#X obj 6175 6275 try -1000 1 -1000;
#X obj 6200 6300 try -1000 1 1000;
#X obj 6225 6325 try -1000 1 -1;
#X obj 6250 6350 try -1000 1 1;
#X obj 6275 6375 try -1000 1 0;
#X obj 6300 6400 try -1000 0 bang;
#X obj 6325 6425 try -1000 0 .;
#X obj 6350 6450 try -1000 0 foo;
#X obj 6375 6475 try -1000 0 -1000;
#X obj 6400 6500 try -1000 0 1000;
#X obj 6425 6525 try -1000 0 -1;
#X obj 6450 6550 try -1000 0 1;
#X obj 6475 6575 try -1000 0 0;
#X obj 6500 6600 try 1000 bang bang;
#X obj 6525 6625 try 1000 bang .;
#X obj 6550 6650 try 1000 bang foo;
#X obj 6575 6675 try 1000 bang -1000;
#X obj 6600 6700 try 1000 bang 1000;
#X obj 6625 6725 try 1000 bang -1;
#X obj 6650 6750 try 1000 bang 1;
#X obj 6675 6775 try 1000 bang 0;
#X obj 6700 6800 try 1000 . bang;
#X obj 6725 6825 try 1000 . .;
#X obj 6750 6850 try 1000 . foo;
#X obj 6775 6875 try 1000 . -1000;
#X obj 6800 6900 try 1000 . 1000;
#X obj 6825 6925 try 1000 . -1;
#X obj 6850 6950 try 1000 . 1;
#X obj 6875 6975 try 1000 . 0;
#X obj 6900 7000 try 1000 foo bang;
#X obj 6925 7025 try 1000 foo .;
#X obj 6950 7050 try 1000 foo foo;
#X obj 6975 7075 try 1000 foo -1000;
#X obj 7000 7100 try 1000 foo 1000;
#X obj 7025 7125 try 1000 foo -1;
#X obj 7050 7150 try 1000 foo 1;
#X obj 7075 7175 try 1000 foo 0;
#X obj 7100 7200 try 1000 -1000 bang;
#X obj 7125 7225 try 1000 -1000 .;
#X obj 7150 7250 try 1000 -1000 foo;
#X obj 7175 7275 try 1000 -1000 -1000;
#X obj 7200 7300 try 1000 -1000 1000;
#X obj 7225 7325 try 1000 -1000 -1;
#X obj 7250 7350 try 1000 -1000 1;
#X obj 7275 7375 try 1000 -1000 0;
#X obj 7300 7400 try 1000 1000 bang;
#X obj 7325 7425 try 1000 1000 .;
#X obj 7350 7450 try 1000 1000 foo;
#X obj 7375 7475 try 1000 1000 -1000;
#X obj 7400 7500 try 1000 1000 1000;
#X obj 7425 7525 try 1000 1000 -1;
#X obj 7450 7550 try 1000 1000 1;
#X obj 7475 7575 try 1000 1000 0;
#X obj 7500 7600 try 1000 -1 bang;
#X obj 7525 7625 try 1000 -1 .;
#X obj 7550 7650 try 1000 -1 foo;
#X obj 7575 7675 try 1000 -1 -1000;
#X obj 7600 7700 try 1000 -1 1000;
#X obj 7625 7725 try 1000 -1 -1;
#X obj 7650 7750 try 1000 -1 1;
#X obj 7675 7775 try 1000 -1 0;
#X obj 7700 7800 try 1000 1 bang;
#X obj 7725 7825 try 1000 1 .;
#X obj 7750 7850 try 1000 1 foo;
#X obj 7775 7875 try 1000 1 -1000;
#X obj 7800 7900 try 1000 1 1000;
#X obj 7825 7925 try 1000 1 -1;
#X obj 7850 7950 try 1000 1 1;
#X obj 7875 7975 try 1000 1 0;
#X obj 7900 8000 try 1000 0 bang;
#X obj 7925 8025 try 1000 0 .;
#X obj 7950 8050 try 1000 0 foo;
#X obj 7975 8075 try 1000 0 -1000;
#X obj 8000 8100 try 1000 0 1000;
#X obj 8025 8125 try 1000 0 -1;
#X obj 8050 8150 try 1000 0 1;
#X obj 8075 8175 try 1000 0 0;
#X obj 8100 8200 try -1 bang bang;
#X obj 8125 8225 try -1 bang .;
#X obj 8150 8250 try -1 bang foo;
#X obj 8175 8275 try -1 bang -1000;
#X obj 8200 8300 try -1 bang 1000;
#X obj 8225 8325 try -1 bang -1;
#X obj 8250 8350 try -1 bang 1;
#X obj 8275 8375 try -1 bang 0;
#X obj 8300 8400 try -1 . bang;
#X obj 8325 8425 try -1 . .;
#X obj 8350 8450 try -1 . foo;
#X obj 8375 8475 try -1 . -1000;
#X obj 8400 8500 try -1 . 1000;
#X obj 8425 8525 try -1 . -1;
#X obj 8450 8550 try -1 . 1;
#X obj 8475 8575 try -1 . 0;
#X obj 8500 8600 try -1 foo bang;
#X obj 8525 8625 try -1 foo .;
#X obj 8550 8650 try -1 foo foo;
#X obj 8575 8675 try -1 foo -1000;
#X obj 8600 8700 try -1 foo 1000;
#X obj 8625 8725 try -1 foo -1;
#X obj 8650 8750 try -1 foo 1;
#X obj 8675 8775 try -1 foo 0;
#X obj 8700 8800 try -1 -1000 bang;
#X obj 8725 8825 try -1 -1000 .;
#X obj 8750 8850 try -1 -1000 foo;
#X obj 8775 8875 try -1 -1000 -1000;
#X obj 8800 8900 try -1 -1000 1000;
#X obj 8825 8925 try -1 -1000 -1;
#X obj 8850 8950 try -1 -1000 1;
#X obj 8875 8975 try -1 -1000 0;
#X obj 8900 9000 try -1 1000 bang;
#X obj 8925 9025 try -1 1000 .;
#X obj 8950 9050 try -1 1000 foo;
#X obj 8975 9075 try -1 1000 -1000;
#X obj 9000 9100 try -1 1000 1000;
#X obj 9025 9125 try -1 1000 -1;
#X obj 9050 9150 try -1 1000 1;
#X obj 9075 9175 try -1 1000 0;
#X obj 9100 9200 try -1 -1 bang;
#X obj 9125 9225 try -1 -1 .;
#X obj 9150 9250 try -1 -1 foo;
#X obj 9175 9275 try -1 -1 -1000;
#X obj 9200 9300 try -1 -1 1000;
#X obj 9225 9325 try -1 -1 -1;
#X obj 9250 9350 try -1 -1 1;
#X obj 9275 9375 try -1 -1 0;
#X obj 9300 9400 try -1 1 bang;
#X obj 9325 9425 try -1 1 .;
#X obj 9350 9450 try -1 1 foo;
#X obj 9375 9475 try -1 1 -1000;
#X obj 9400 9500 try -1 1 1000;
#X obj 9425 9525 try -1 1 -1;
#X obj 9450 9550 try -1 1 1;
#X obj 9475 9575 try -1 1 0;
#X obj 9500 9600 try -1 0 bang;
#X obj 9525 9625 try -1 0 .;
#X obj 9550 9650 try -1 0 foo;
#X obj 9575 9675 try -1 0 -1000;
#X obj 9600 9700 try -1 0 1000;
#X obj 9625 9725 try -1 0 -1;
#X obj 9650 9750 try -1 0 1;
#X obj 9675 9775 try -1 0 0;
#X obj 9700 9800 try 1 bang bang;
#X obj 9725 9825 try 1 bang .;
#X obj 9750 9850 try 1 bang foo;
#X obj 9775 9875 try 1 bang -1000;
#X obj 9800 9900 try 1 bang 1000;
#X obj 9825 9925 try 1 bang -1;
#X obj 9850 9950 try 1 bang 1;
#X obj 9875 9975 try 1 bang 0;
#X obj 9900 10000 try 1 . bang;
#X obj 9925 10025 try 1 . .;
#X obj 9950 10050 try 1 . foo;
#X obj 9975 10075 try 1 . -1000;
#X obj 10000 10100 try 1 . 1000;
#X obj 10025 10125 try 1 . -1;
#X obj 10050 10150 try 1 . 1;
#X obj 10075 10175 try 1 . 0;
#X obj 10100 10200 try 1 foo bang;
#X obj 10125 10225 try 1 foo .;
#X obj 10150 10250 try 1 foo foo;
#X obj 10175 10275 try 1 foo -1000;
#X obj 10200 10300 try 1 foo 1000;
#X obj 10225 10325 try 1 foo -1;
#X obj 10250 10350 try 1 foo 1;
#X obj 10275 10375 try 1 foo 0;
#X obj 10300 10400 try 1 -1000 bang;
#X obj 10325 10425 try 1 -1000 .;
#X obj 10350 10450 try 1 -1000 foo;
#X obj 10375 10475 try 1 -1000 -1000;
#X obj 10400 10500 try 1 -1000 1000;
#X obj 10425 10525 try 1 -1000 -1;
#X obj 10450 10550 try 1 -1000 1;
#X obj 10475 10575 try 1 -1000 0;
#X obj 10500 10600 try 1 1000 bang;
#X obj 10525 10625 try 1 1000 .;
#X obj 10550 10650 try 1 1000 foo;
#X obj 10575 10675 try 1 1000 -1000;
#X obj 10600 10700 try 1 1000 1000;
#X obj 10625 10725 try 1 1000 -1;
#X obj 10650 10750 try 1 1000 1;
#X obj 10675 10775 try 1 1000 0;
#X obj 10700 10800 try 1 -1 bang;
#X obj 10725 10825 try 1 -1 .;
#X obj 10750 10850 try 1 -1 foo;
#X obj 10775 10875 try 1 -1 -1000;
#X obj 10800 10900 try 1 -1 1000;
#X obj 10825 10925 try 1 -1 -1;
#X obj 10850 10950 try 1 -1 1;
#X obj 10875 10975 try 1 -1 0;
#X obj 10900 11000 try 1 1 bang;
#X obj 10925 11025 try 1 1 .;
#X obj 10950 11050 try 1 1 foo;
#X obj 10975 11075 try 1 1 -1000;
#X obj 11000 11100 try 1 1 1000;
#X obj 11025 11125 try 1 1 -1;
#X obj 11050 11150 try 1 1 1;
#X obj 11075 11175 try 1 1 0;
#X obj 11100 11200 try 1 0 bang;
#X obj 11125 11225 try 1 0 .;
#X obj 11150 11250 try 1 0 foo;
#X obj 11175 11275 try 1 0 -1000;
#X obj 11200 11300 try 1 0 1000;
#X obj 11225 11325 try 1 0 -1;
#X obj 11250 11350 try 1 0 1;
#X obj 11275 11375 try 1 0 0;
#X obj 11300 11400 try 0 bang bang;
#X obj 11325 11425 try 0 bang .;
#X obj 11350 11450 try 0 bang foo;
#X obj 11375 11475 try 0 bang -1000;
#X obj 11400 11500 try 0 bang 1000;
#X obj 11425 11525 try 0 bang -1;
#X obj 11450 11550 try 0 bang 1;
#X obj 11475 11575 try 0 bang 0;
#X obj 11500 11600 try 0 . bang;
#X obj 11525 11625 try 0 . .;
#X obj 11550 11650 try 0 . foo;
#X obj 11575 11675 try 0 . -1000;
#X obj 11600 11700 try 0 . 1000;
#X obj 11625 11725 try 0 . -1;
#X obj 11650 11750 try 0 . 1;
#X obj 11675 11775 try 0 . 0;
#X obj 11700 11800 try 0 foo bang;
#X obj 11725 11825 try 0 foo .;
#X obj 11750 11850 try 0 foo foo;
#X obj 11775 11875 try 0 foo -1000;
#X obj 11800 11900 try 0 foo 1000;
#X obj 11825 11925 try 0 foo -1;
#X obj 11850 11950 try 0 foo 1;
#X obj 11875 11975 try 0 foo 0;
#X obj 11900 12000 try 0 -1000 bang;
#X obj 11925 12025 try 0 -1000 .;
#X obj 11950 12050 try 0 -1000 foo;
#X obj 11975 12075 try 0 -1000 -1000;
#X obj 12000 12100 try 0 -1000 1000;
#X obj 12025 12125 try 0 -1000 -1;
#X obj 12050 12150 try 0 -1000 1;
#X obj 12075 12175 try 0 -1000 0;
#X obj 12100 12200 try 0 1000 bang;
#X obj 12125 12225 try 0 1000 .;
#X obj 12150 12250 try 0 1000 foo;
#X obj 12175 12275 try 0 1000 -1000;
#X obj 12200 12300 try 0 1000 1000;
#X obj 12225 12325 try 0 1000 -1;
#X obj 12250 12350 try 0 1000 1;
#X obj 12275 12375 try 0 1000 0;
#X obj 12300 12400 try 0 -1 bang;
#X obj 12325 12425 try 0 -1 .;
#X obj 12350 12450 try 0 -1 foo;
#X obj 12375 12475 try 0 -1 -1000;
#X obj 12400 12500 try 0 -1 1000;
#X obj 12425 12525 try 0 -1 -1;
#X obj 12450 12550 try 0 -1 1;
#X obj 12475 12575 try 0 -1 0;
#X obj 12500 12600 try 0 1 bang;
#X obj 12525 12625 try 0 1 .;
#X obj 12550 12650 try 0 1 foo;
#X obj 12575 12675 try 0 1 -1000;
#X obj 12600 12700 try 0 1 1000;
#X obj 12625 12725 try 0 1 -1;
#X obj 12650 12750 try 0 1 1;
#X obj 12675 12775 try 0 1 0;
#X obj 12700 12800 try 0 0 bang;
#X obj 12725 12825 try 0 0 .;
#X obj 12750 12850 try 0 0 foo;
#X obj 12775 12875 try 0 0 -1000;
#X obj 12800 12900 try 0 0 1000;
#X obj 12825 12925 try 0 0 -1;
#X obj 12850 12950 try 0 0 1;
#X obj 12875 12975 try 0 0 0;
#X obj 12900 13000 try bang bang;
#X obj 12925 13025 try bang .;
#X obj 12950 13050 try bang foo;
#X obj 12975 13075 try bang -1000;
#X obj 13000 13100 try bang 1000;
#X obj 13025 13125 try bang -1;
#X obj 13050 13150 try bang 1;
#X obj 13075 13175 try bang 0;
#X obj 13100 13200 try . bang;
#X obj 13125 13225 try . .;
#X obj 13150 13250 try . foo;
#X obj 13175 13275 try . -1000;
#X obj 13200 13300 try . 1000;
#X obj 13225 13325 try . -1;
#X obj 13250 13350 try . 1;
#X obj 13275 13375 try . 0;
#X obj 13300 13400 try foo bang;
#X obj 13325 13425 try foo .;
#X obj 13350 13450 try foo foo;
#X obj 13375 13475 try foo -1000;
#X obj 13400 13500 try foo 1000;
#X obj 13425 13525 try foo -1;
#X obj 13450 13550 try foo 1;
#X obj 13475 13575 try foo 0;
#X obj 13500 13600 try -1000 bang;
#X obj 13525 13625 try -1000 .;
#X obj 13550 13650 try -1000 foo;
#X obj 13575 13675 try -1000 -1000;
#X obj 13600 13700 try -1000 1000;
#X obj 13625 13725 try -1000 -1;
#X obj 13650 13750 try -1000 1;
#X obj 13675 13775 try -1000 0;
#X obj 13700 13800 try 1000 bang;
#X obj 13725 13825 try 1000 .;
#X obj 13750 13850 try 1000 foo;
#X obj 13775 13875 try 1000 -1000;
#X obj 13800 13900 try 1000 1000;
#X obj 13825 13925 try 1000 -1;
#X obj 13850 13950 try 1000 1;
#X obj 13875 13975 try 1000 0;
#X obj 13900 14000 try -1 bang;
#X obj 13925 14025 try -1 .;
#X obj 13950 14050 try -1 foo;
#X obj 13975 14075 try -1 -1000;
#X obj 14000 14100 try -1 1000;
#X obj 14025 14125 try -1 -1;
#X obj 14050 14150 try -1 1;
#X obj 14075 14175 try -1 0;
#X obj 14100 14200 try 1 bang;
#X obj 14125 14225 try 1 .;
#X obj 14150 14250 try 1 foo;
#X obj 14175 14275 try 1 -1000;
#X obj 14200 14300 try 1 1000;
#X obj 14225 14325 try 1 -1;
#X obj 14250 14350 try 1 1;
#X obj 14275 14375 try 1 0;
#X obj 14300 14400 try 0 bang;
#X obj 14325 14425 try 0 .;
#X obj 14350 14450 try 0 foo;
#X obj 14375 14475 try 0 -1000;
#X obj 14400 14500 try 0 1000;
#X obj 14425 14525 try 0 -1;
#X obj 14450 14550 try 0 1;
#X obj 14475 14575 try 0 0;
#X obj 14500 14600 try bang;
#X obj 14525 14625 try .;
#X obj 14550 14650 try foo;
#X obj 14575 14675 try -1000;
#X obj 14600 14700 try 1000;
#X obj 14625 14725 try -1;
#X obj 14650 14750 try 1;
#X obj 14675 14775 try 0;
#X obj 14700 14800 try;
#X connect 0 0 1 0;
#X connect 1 0 2 0;
#X connect 2 1 3 0;
#X connect 2 0 4 0;
#X connect 2 0 5 0;
#X connect 2 0 6 0;
#X connect 2 0 7 0;
#X connect 2 0 8 0;
#X connect 2 0 9 0;
#X connect 2 0 10 0;
#X connect 2 0 11 0;
#X connect 2 0 12 0;
#X connect 2 0 13 0;
#X connect 2 0 14 0;
#X connect 2 0 15 0;
#X connect 2 0 16 0;
#X connect 2 0 17 0;
#X connect 2 0 18 0;
#X connect 2 0 19 0;
#X connect 2 0 20 0;
#X connect 2 0 21 0;
#X connect 2 0 22 0;
#X connect 2 0 23 0;
#X connect 2 0 24 0;
#X connect 2 0 25 0;
#X connect 2 0 26 0;
#X connect 2 0 27 0;
#X connect 2 0 28 0;
#X connect 2 0 29 0;
#X connect 2 0 30 0;
#X connect 2 0 31 0;
#X connect 2 0 32 0;
#X connect 2 0 33 0;
#X connect 2 0 34 0;
#X connect 2 0 35 0;
#X connect 2 0 36 0;
#X connect 2 0 37 0;
#X connect 2 0 38 0;
#X connect 2 0 39 0;
#X connect 2 0 40 0;
#X connect 2 0 41 0;
#X connect 2 0 42 0;
#X connect 2 0 43 0;
#X connect 2 0 44 0;
#X connect 2 0 45 0;
#X connect 2 0 46 0;
#X connect 2 0 47 0;
#X connect 2 0 48 0;
#X connect 2 0 49 0;
#X connect 2 0 50 0;
#X connect 2 0 51 0;
#X connect 2 0 52 0;
#X connect 2 0 53 0;
#X connect 2 0 54 0;
#X connect 2 0 55 0;
#X connect 2 0 56 0;
#X connect 2 0 57 0;
#X connect 2 0 58 0;
#X connect 2 0 59 0;
#X connect 2 0 60 0;
#X connect 2 0 61 0;
#X connect 2 0 62 0;
#X connect 2 0 63 0;
#X connect 2 0 64 0;
#X connect 2 0 65 0;
#X connect 2 0 66 0;
#X connect 2 0 67 0;
#X connect 2 0 68 0;
#X connect 2 0 69 0;
#X connect 2 0 70 0;
#X connect 2 0 71 0;
#X connect 2 0 72 0;
#X connect 2 0 73 0;
#X connect 2 0 74 0;
#X connect 2 0 75 0;
#X connect 2 0 76 0;
#X connect 2 0 77 0;
#X connect 2 0 78 0;
#X connect 2 0 79 0;
#X connect 2 0 80 0;
#X connect 2 0 81 0;
#X connect 2 0 82 0;
#X connect 2 0 83 0;
#X connect 2 0 84 0;
#X connect 2 0 85 0;
#X connect 2 0 86 0;
#X connect 2 0 87 0;
#X connect 2 0 88 0;
#X connect 2 0 89 0;
#X connect 2 0 90 0;
#X connect 2 0 91 0;
#X connect 2 0 92 0;
#X connect 2 0 93 0;
#X connect 2 0 94 0;
#X connect 2 0 95 0;
#X connect 2 0 96 0;
#X connect 2 0 97 0;
#X connect 2 0 98 0;
#X connect 2 0 99 0;
#X connect 2 0 100 0;
#X connect 2 0 101 0;
#X connect 2 0 102 0;
#X connect 2 0 103 0;
#X connect 2 0 104 0;
#X connect 2 0 105 0;
#X connect 2 0 106 0;
#X connect 2 0 107 0;
#X connect 2 0 108 0;
#X connect 2 0 109 0;
#X connect 2 0 110 0;
#X connect 2 0 111 0;
#X connect 2 0 112 0;
#X connect 2 0 113 0;
#X connect 2 0 114 0;
#X connect 2 0 115 0;
#X connect 2 0 116 0;
#X connect 2 0 117 0;
#X connect 2 0 118 0;
#X connect 2 0 119 0;
#X connect 2 0 120 0;
#X connect 2 0 121 0;
#X connect 2 0 122 0;
#X connect 2 0 123 0;
#X connect 2 0 124 0;
#X connect 2 0 125 0;
#X connect 2 0 126 0;
#X connect 2 0 127 0;
#X connect 2 0 128 0;
#X connect 2 0 129 0;
#X connect 2 0 130 0;
#X connect 2 0 131 0;
#X connect 2 0 132 0;
#X connect 2 0 133 0;
#X connect 2 0 134 0;
#X connect 2 0 135 0;
#X connect 2 0 136 0;
#X connect 2 0 137 0;
#X connect 2 0 138 0;
#X connect 2 0 139 0;
#X connect 2 0 140 0;
#X connect 2 0 141 0;
#X connect 2 0 142 0;
#X connect 2 0 143 0;
#X connect 2 0 144 0;
#X connect 2 0 145 0;
#X connect 2 0 146 0;
#X connect 2 0 147 0;
#X connect 2 0 148 0;
#X connect 2 0 149 0;
#X connect 2 0 150 0;
#X connect 2 0 151 0;
#X connect 2 0 152 0;
#X connect 2 0 153 0;
#X connect 2 0 154 0;
#X connect 2 0 155 0;
#X connect 2 0 156 0;
#X connect 2 0 157 0;
#X connect 2 0 158 0;
#X connect 2 0 159 0;
#X connect 2 0 160 0;
#X connect 2 0 161 0;
#X connect 2 0 162 0;
#X connect 2 0 163 0;
#X connect 2 0 164 0;
#X connect 2 0 165 0;
#X connect 2 0 166 0;
#X connect 2 0 167 0;
#X connect 2 0 168 0;
#X connect 2 0 169 0;
#X connect 2 0 170 0;
#X connect 2 0 171 0;
#X connect 2 0 172 0;
#X connect 2 0 173 0;
#X connect 2 0 174 0;
#X connect 2 0 175 0;
#X connect 2 0 176 0;
#X connect 2 0 177 0;
#X connect 2 0 178 0;
#X connect 2 0 179 0;
#X connect 2 0 180 0;
#X connect 2 0 181 0;
#X connect 2 0 182 0;
#X connect 2 0 183 0;
#X connect 2 0 184 0;
#X connect 2 0 185 0;
#X connect 2 0 186 0;
#X connect 2 0 187 0;
#X connect 2 0 188 0;
#X connect 2 0 189 0;
#X connect 2 0 190 0;
#X connect 2 0 191 0;
#X connect 2 0 192 0;
#X connect 2 0 193 0;
#X connect 2 0 194 0;
#X connect 2 0 195 0;
#X connect 2 0 196 0;
#X connect 2 0 197 0;
#X connect 2 0 198 0;
#X connect 2 0 199 0;
#X connect 2 0 200 0;
#X connect 2 0 201 0;
#X connect 2 0 202 0;
#X connect 2 0 203 0;
#X connect 2 0 204 0;
#X connect 2 0 205 0;
#X connect 2 0 206 0;
#X connect 2 0 207 0;
#X connect 2 0 208 0;
#X connect 2 0 209 0;
#X connect 2 0 210 0;
#X connect 2 0 211 0;
#X connect 2 0 212 0;
#X connect 2 0 213 0;
#X connect 2 0 214 0;
#X connect 2 0 215 0;
#X connect 2 0 216 0;
#X connect 2 0 217 0;
#X connect 2 0 218 0;
#X connect 2 0 219 0;
#X connect 2 0 220 0;
#X connect 2 0 221 0;
#X connect 2 0 222 0;
#X connect 2 0 223 0;
#X connect 2 0 224 0;
#X connect 2 0 225 0;
#X connect 2 0 226 0;
#X connect 2 0 227 0;
#X connect 2 0 228 0;
#X connect 2 0 229 0;
#X connect 2 0 230 0;
#X connect 2 0 231 0;
#X connect 2 0 232 0;
#X connect 2 0 233 0;
#X connect 2 0 234 0;
#X connect 2 0 235 0;
#X connect 2 0 236 0;
#X connect 2 0 237 0;
#X connect 2 0 238 0;
#X connect 2 0 239 0;
#X connect 2 0 240 0;
#X connect 2 0 241 0;
#X connect 2 0 242 0;
#X connect 2 0 243 0;
#X connect 2 0 244 0;
#X connect 2 0 245 0;
#X connect 2 0 246 0;
#X connect 2 0 247 0;
#X connect 2 0 248 0;
#X connect 2 0 249 0;
#X connect 2 0 250 0;
#X connect 2 0 251 0;
#X connect 2 0 252 0;
#X connect 2 0 253 0;
#X connect 2 0 254 0;
#X connect 2 0 255 0;
#X connect 2 0 256 0;
#X connect 2 0 257 0;
#X connect 2 0 258 0;
#X connect 2 0 259 0;
#X connect 2 0 260 0;
#X connect 2 0 261 0;
#X connect 2 0 262 0;
#X connect 2 0 263 0;
#X connect 2 0 264 0;
#X connect 2 0 265 0;
#X connect 2 0 266 0;
#X connect 2 0 267 0;
#X connect 2 0 268 0;
#X connect 2 0 269 0;
#X connect 2 0 270 0;
#X connect 2 0 271 0;
#X connect 2 0 272 0;
#X connect 2 0 273 0;
#X connect 2 0 274 0;
#X connect 2 0 275 0;
#X connect 2 0 276 0;
#X connect 2 0 277 0;
#X connect 2 0 278 0;
#X connect 2 0 279 0;
#X connect 2 0 280 0;
#X connect 2 0 281 0;
#X connect 2 0 282 0;
#X connect 2 0 283 0;
#X connect 2 0 284 0;
#X connect 2 0 285 0;
#X connect 2 0 286 0;
#X connect 2 0 287 0;
#X connect 2 0 288 0;
#X connect 2 0 289 0;
#X connect 2 0 290 0;
#X connect 2 0 291 0;
#X connect 2 0 292 0;
#X connect 2 0 293 0;
#X connect 2 0 294 0;
#X connect 2 0 295 0;
#X connect 2 0 296 0;
#X connect 2 0 297 0;
#X connect 2 0 298 0;
#X connect 2 0 299 0;
#X connect 2 0 300 0;
#X connect 2 0 301 0;
#X connect 2 0 302 0;
#X connect 2 0 303 0;
#X connect 2 0 304 0;
#X connect 2 0 305 0;
#X connect 2 0 306 0;
#X connect 2 0 307 0;
#X connect 2 0 308 0;
#X connect 2 0 309 0;
#X connect 2 0 310 0;
#X connect 2 0 311 0;
#X connect 2 0 312 0;
#X connect 2 0 313 0;
#X connect 2 0 314 0;
#X connect 2 0 315 0;
#X connect 2 0 316 0;
#X connect 2 0 317 0;
#X connect 2 0 318 0;
#X connect 2 0 319 0;
#X connect 2 0 320 0;
#X connect 2 0 321 0;
#X connect 2 0 322 0;
#X connect 2 0 323 0;
#X connect 2 0 324 0;
#X connect 2 0 325 0;
#X connect 2 0 326 0;
#X connect 2 0 327 0;
#X connect 2 0 328 0;
#X connect 2 0 329 0;
#X connect 2 0 330 0;
#X connect 2 0 331 0;
#X connect 2 0 332 0;
#X connect 2 0 333 0;
#X connect 2 0 334 0;
#X connect 2 0 335 0;
#X connect 2 0 336 0;
#X connect 2 0 337 0;
#X connect 2 0 338 0;
#X connect 2 0 339 0;
#X connect 2 0 340 0;
#X connect 2 0 341 0;
#X connect 2 0 342 0;
#X connect 2 0 343 0;
#X connect 2 0 344 0;
#X connect 2 0 345 0;
#X connect 2 0 346 0;
#X connect 2 0 347 0;
#X connect 2 0 348 0;
#X connect 2 0 349 0;
#X connect 2 0 350 0;
#X connect 2 0 351 0;
#X connect 2 0 352 0;
#X connect 2 0 353 0;
#X connect 2 0 354 0;
#X connect 2 0 355 0;
#X connect 2 0 356 0;
#X connect 2 0 357 0;
#X connect 2 0 358 0;
#X connect 2 0 359 0;
#X connect 2 0 360 0;
#X connect 2 0 361 0;
#X connect 2 0 362 0;
#X connect 2 0 363 0;
#X connect 2 0 364 0;
#X connect 2 0 365 0;
#X connect 2 0 366 0;
#X connect 2 0 367 0;
#X connect 2 0 368 0;
#X connect 2 0 369 0;
#X connect 2 0 370 0;
#X connect 2 0 371 0;
#X connect 2 0 372 0;
#X connect 2 0 373 0;
#X connect 2 0 374 0;
#X connect 2 0 375 0;
#X connect 2 0 376 0;
#X connect 2 0 377 0;
#X connect 2 0 378 0;
#X connect 2 0 379 0;
#X connect 2 0 380 0;
#X connect 2 0 381 0;
#X connect 2 0 382 0;
#X connect 2 0 383 0;
#X connect 2 0 384 0;
#X connect 2 0 385 0;
#X connect 2 0 386 0;
#X connect 2 0 387 0;
#X connect 2 0 388 0;
#X connect 2 0 389 0;
#X connect 2 0 390 0;
#X connect 2 0 391 0;
#X connect 2 0 392 0;
#X connect 2 0 393 0;
#X connect 2 0 394 0;
#X connect 2 0 395 0;
#X connect 2 0 396 0;
#X connect 2 0 397 0;
#X connect 2 0 398 0;
#X connect 2 0 399 0;
#X connect 2 0 400 0;
#X connect 2 0 401 0;
#X connect 2 0 402 0;
#X connect 2 0 403 0;
#X connect 2 0 404 0;
#X connect 2 0 405 0;
#X connect 2 0 406 0;
#X connect 2 0 407 0;
#X connect 2 0 408 0;
#X connect 2 0 409 0;
#X connect 2 0 410 0;
#X connect 2 0 411 0;
#X connect 2 0 412 0;
#X connect 2 0 413 0;
#X connect 2 0 414 0;
#X connect 2 0 415 0;
#X connect 2 0 416 0;
#X connect 2 0 417 0;
#X connect 2 0 418 0;
#X connect 2 0 419 0;
#X connect 2 0 420 0;
#X connect 2 0 421 0;
#X connect 2 0 422 0;
#X connect 2 0 423 0;
#X connect 2 0 424 0;
#X connect 2 0 425 0;
#X connect 2 0 426 0;
#X connect 2 0 427 0;
#X connect 2 0 428 0;
#X connect 2 0 429 0;
#X connect 2 0 430 0;
#X connect 2 0 431 0;
#X connect 2 0 432 0;
#X connect 2 0 433 0;
#X connect 2 0 434 0;
#X connect 2 0 435 0;
#X connect 2 0 436 0;
#X connect 2 0 437 0;
#X connect 2 0 438 0;
#X connect 2 0 439 0;
#X connect 2 0 440 0;
#X connect 2 0 441 0;
#X connect 2 0 442 0;
#X connect 2 0 443 0;
#X connect 2 0 444 0;
#X connect 2 0 445 0;
#X connect 2 0 446 0;
#X connect 2 0 447 0;
#X connect 2 0 448 0;
#X connect 2 0 449 0;
#X connect 2 0 450 0;
#X connect 2 0 451 0;
#X connect 2 0 452 0;
#X connect 2 0 453 0;
#X connect 2 0 454 0;
#X connect 2 0 455 0;
#X connect 2 0 456 0;
#X connect 2 0 457 0;
#X connect 2 0 458 0;
#X connect 2 0 459 0;
#X connect 2 0 460 0;
#X connect 2 0 461 0;
#X connect 2 0 462 0;
#X connect 2 0 463 0;
#X connect 2 0 464 0;
#X connect 2 0 465 0;
#X connect 2 0 466 0;
#X connect 2 0 467 0;
#X connect 2 0 468 0;
#X connect 2 0 469 0;
#X connect 2 0 470 0;
#X connect 2 0 471 0;
#X connect 2 0 472 0;
#X connect 2 0 473 0;
#X connect 2 0 474 0;
#X connect 2 0 475 0;
#X connect 2 0 476 0;
#X connect 2 0 477 0;
#X connect 2 0 478 0;
#X connect 2 0 479 0;
#X connect 2 0 480 0;
#X connect 2 0 481 0;
#X connect 2 0 482 0;
#X connect 2 0 483 0;
#X connect 2 0 484 0;
#X connect 2 0 485 0;
#X connect 2 0 486 0;
#X connect 2 0 487 0;
#X connect 2 0 488 0;
#X connect 2 0 489 0;
#X connect 2 0 490 0;
#X connect 2 0 491 0;
#X connect 2 0 492 0;
#X connect 2 0 493 0;
#X connect 2 0 494 0;
#X connect 2 0 495 0;
#X connect 2 0 496 0;
#X connect 2 0 497 0;
#X connect 2 0 498 0;
#X connect 2 0 499 0;
#X connect 2 0 500 0;
#X connect 2 0 501 0;
#X connect 2 0 502 0;
#X connect 2 0 503 0;
#X connect 2 0 504 0;
#X connect 2 0 505 0;
#X connect 2 0 506 0;
#X connect 2 0 507 0;
#X connect 2 0 508 0;
#X connect 2 0 509 0;
#X connect 2 0 510 0;
#X connect 2 0 511 0;
#X connect 2 0 512 0;
#X connect 2 0 513 0;
#X connect 2 0 514 0;
#X connect 2 0 515 0;
#X connect 2 0 516 0;
#X connect 2 0 517 0;
#X connect 2 0 518 0;
#X connect 2 0 519 0;
#X connect 2 0 520 0;
#X connect 2 0 521 0;
#X connect 2 0 522 0;
#X connect 2 0 523 0;
#X connect 2 0 524 0;
#X connect 2 0 525 0;
#X connect 2 0 526 0;
#X connect 2 0 527 0;
#X connect 2 0 528 0;
#X connect 2 0 529 0;
#X connect 2 0 530 0;
#X connect 2 0 531 0;
#X connect 2 0 532 0;
#X connect 2 0 533 0;
#X connect 2 0 534 0;
#X connect 2 0 535 0;
#X connect 2 0 536 0;
#X connect 2 0 537 0;
#X connect 2 0 538 0;
#X connect 2 0 539 0;
#X connect 2 0 540 0;
#X connect 2 0 541 0;
#X connect 2 0 542 0;
#X connect 2 0 543 0;
#X connect 2 0 544 0;
#X connect 2 0 545 0;
#X connect 2 0 546 0;
#X connect 2 0 547 0;
#X connect 2 0 548 0;
#X connect 2 0 549 0;
#X connect 2 0 550 0;
#X connect 2 0 551 0;
#X connect 2 0 552 0;
#X connect 2 0 553 0;
#X connect 2 0 554 0;
#X connect 2 0 555 0;
#X connect 2 0 556 0;
#X connect 2 0 557 0;
#X connect 2 0 558 0;
#X connect 2 0 559 0;
#X connect 2 0 560 0;
#X connect 2 0 561 0;
#X connect 2 0 562 0;
#X connect 2 0 563 0;
#X connect 2 0 564 0;
#X connect 2 0 565 0;
#X connect 2 0 566 0;
#X connect 2 0 567 0;
#X connect 2 0 568 0;
#X connect 2 0 569 0;
#X connect 2 0 570 0;
#X connect 2 0 571 0;
#X connect 2 0 572 0;
#X connect 2 0 573 0;
#X connect 2 0 574 0;
#X connect 2 0 575 0;
#X connect 2 0 576 0;
#X connect 2 0 577 0;
#X connect 2 0 578 0;
#X connect 2 0 579 0;
#X connect 2 0 580 0;
#X connect 2 0 581 0;
#X connect 2 0 582 0;
#X connect 2 0 583 0;
#X connect 2 0 584 0;
#X connect 2 0 585 0;
#X connect 2 0 586 0;
#X connect 2 0 587 0;
#X connect 2 0 588 0