#N canvas 348 301 450 300 10;
#X text 39 169 this code adds an external "loader" to Miller S. Puckette's
"pure data" \, * which allows the on-the-fly creation of abstractions
by just creating an * object which is of a yet unknown file and for
which no abstraction-file exists * * the new abstraction should be
minimal and eventually be loaded from a template;
#X text 134 91 FIXME;
#X text 58 41 THIS IS ONLY A STUB;
#N canvas 1297 485 494 344 META 0;
#X text 12 25 LICENSE GPL v2;
#X text 12 65 AUTHOR IOhannes m zmoelnig;
#X text 12 5 KEYWORDS loader;
#X text 12 85 HELP_PATCH_AUTHORS IOhannes m zmölnig;
#X text 12 45 DESCRIPTION specify a template for unknown objectlcasses
, f 72;
#X restore 373 32 pd META;
