#N canvas 315 241 645 613 10;
#X text 39 77 usage:;
#X obj 90 43 canvasargs;
#X msg 121 481 list 10 20;
#X msg 141 503 list quite a lot of arguments;
#X text 83 78 put the [canvasargs] in your abstraction;
#X text 81 114 send a _list_ of new arguments to the [canvasargs];
#X text 82 130 save the parent patch;
#X text 83 94 put the abstraction in your parent patch;
#X text 74 150 --> the parent patch will save your abstraction with
the arguments you sent to [canvasargs] instead of the original ones
;
#X text 174 44 manipulate the abstraction's arguments on saving;
#X text 79 200 you can also get the arguments of the abstraction by
sending a "bang" message to [canvasargs]. Since iemguts-0.3 the arguments
are dollar-expanded. Prior versions would give you the raw arguments.
;
#X text 79 365 sending a "raw" message (available since iemguts-0.3)
to [canvasargs] will get the arguments with dollar-arguments unexpanded.
;
#X msg 72 420 bang;
#X msg 88 440 raw;
#X obj 71 587 print arguments;
#X msg 153 529 list;
#X text 192 526 clear the arguments;
#X text 119 418 get arguments (dollar-expanded);
#X text 119 440 get arguments (raw);
#X text 380 577 (c) IOhannes m zmölnig @ iem \, 2018;
#X text 84 274 NOTE: When changing the arguments (via a "list" message)
\, the dollar-expanded variables (obtained via 'bang' will wrongly
reflect the original arguments. The raw arguments will always be correct.
;
#X obj 71 564 canvasargs-test \$0 \$1 \$2.foo;
#X connect 2 0 21 0;
#X connect 3 0 21 0;
#X connect 12 0 21 0;
#X connect 13 0 21 0;
#X connect 15 0 21 0;
#X connect 21 0 14 0;
