#N canvas 612 413 554 414 10;
#X obj 28 38 closebang;
#X text 108 39 emits a bang when an abstraction is deleted.;
#X text 41 76 [closebang] notifies you when an abstraction is about
to be deleted \, so you can:;
#X text 52 112 - cleanup resources;
#X text 52 127 - keep track of instances (PUSH);
#X text 52 143 - say goodbye;
#X text 24 350 note: [closebang] requires Pd>=0.47;
#X text 38 172 [closebang] works well for deleting an abstraction in
a running patch.;
#X text 38 201 It works less well \, when closing a top-level patch
(but a best effort attempt is made);
#X text 39 231 As of now (Pd==0.48) \, [closebang] doesn't fire if
you just close Pd.;
#N canvas 167 521 494 344 META 0;
#X text 12 25 LICENSE GPL v2;
#X text 12 145 AUTHOR IOhannes m zmoelnig;
#X text 12 5 KEYWORDS control \, initialisation \, deinitialisation
;
#X text 12 45 DESCRIPTION emits a bang when an abstraction is deleted.
, f 72;
#X text 12 105 OUTLET_0 bang;
#X restore 463 22 pd META;
