#N canvas 241 361 446 325 10;
#X declare -lib patcherize;
#N canvas 504 133 594 498 guts 0;
#X obj 136 176 inlet;
#X obj 207 262 sendcanvas 1;
#X msg 207 242 patcherize;
#X obj 207 222 t b;
#X obj 136 380 canvasselect 1;
#X msg 136 360 select \$1;
#X obj 136 282 t b b;
#X msg 215 356 deselect;
#X obj 149 105 declare -lib patcherize;
#X obj 425 321 s \$0-on;
#X msg 425 300 1;
#X obj 425 231 t b;
#X msg 188 176 init;
#X obj 136 198 route select patcherize init;
#X obj 188 154 loadbang;
#X msg 136 308 0 \, 1 \, 2;
#X obj 136 330 + 8;
#X connect 0 0 13 0;
#X connect 2 0 1 0;
#X connect 3 0 2 0;
#X connect 5 0 4 0;
#X connect 6 0 15 0;
#X connect 6 1 7 0;
#X connect 7 0 4 0;
#X connect 10 0 9 0;
#X connect 11 0 10 0;
#X connect 12 0 13 0;
#X connect 13 0 6 0;
#X connect 13 1 3 0;
#X connect 13 2 11 0;
#X connect 14 0 12 0;
#X connect 15 0 16 0;
#X connect 16 0 5 0;
#X restore 57 116 pd guts;
#X obj 37 274 bng 15 250 50 0 empty empty empty 17 7 0 10 -262144 -1
-1;
#X obj 37 252 r \$0-beat;
#X msg 57 50 select;
#X msg 70 74 patcherize;
#X text 114 263 objects will continue to work...;
#X text 163 45 1st \, select a few objects;
#X text 163 69 then turn selected objects into subpatch;
#X obj 125 152 tgl 15 0 empty \$0-on empty 17 7 0 10 -262144 -1 -1
0 1;
#X obj 125 196 s \$0-beat;
#X obj 125 174 metro 500;
#X connect 2 0 1 0;
#X connect 3 0 0 0;
#X connect 4 0 0 0;
#X connect 8 0 10 0;
#X connect 10 0 9 0;
