#N canvas 33 0 430 262 10;
#N canvas 386 115 340 151 subpatch 0;
#N canvas 450 70 152 94 subsubpatch 0;
#X obj 2 10 receivecanvas 1;
#X obj 2 37 print pd-subpatch;
#X connect 0 0 1 0;
#X restore 52 90 pd subsubpatch;
#X text 48 33 The first argument sets the parent depth.;
#X text 51 49 Have a look at the subsubpatch.;
#X restore 26 206 pd subpatch;
#X obj 25 104 receivecanvas 0;
#X obj 25 129 print receivecanvas-help.pd;
#X obj 23 16 receivecanvas;
#X text 111 16 receives all messages sent to the canvas;
#X text 21 66 depth 0 receives from the canvas containing the [receivecanvas]
object.;
#X text 25 181 Check also:;
#N canvas 398 337 494 344 META 0;
#X text 12 25 LICENSE GPL v2;
#X text 12 145 AUTHOR IOhannes m zmoelnig;
#X text 12 165 HELP_PATCH_AUTHORS IOhannes m zmölnig;
#X text 12 5 KEYWORDS introspection;
#X text 12 45 DESCRIPTION receives all messages sent to the canvas
, f 72;
#X text 12 105 OUTLET_0 msg...;
#X restore 373 12 pd META;
#X connect 1 0 2 0;
