#N canvas 0 0 450 300 10;
#X obj 13 15 try this or \, that or \, f;
#X obj 16 174 try sin~ \, cos~;
#X text 11 81 This object provides a way to create an object with a
fallback. [try bla 13 \, blu 134] will first try to create an object
[bla 13] and if this fails use [blu 134] instead.;
#X text 15 34 create an object with a fallback to a different object
class;
#X text 14 141 You can open the help of this in order to see \, which
object - [sin~] or [cos~] - was finally instantiated.;
#X text 15 219 NOTE:;
#N canvas 398 337 494 344 META 0;
#X text 12 155 LICENSE GPL v2;
#X text 12 175 AUTHOR IOhannes m zmoelnig;
#X text 12 195 HELP_PATCH_AUTHORS IOhannes m zmölnig;
#X text 12 135 KEYWORDS introspection;
#X text 13 45 DESCRIPTION create an object with a fallback to a different
object class, f 72;
#X text 12 75 INLET_n (depends on instantiated object);
#X text 12 96 OUTLET_n (depends on instantiated object);
#X restore 323 272 pd META;
#X text 14 236 8This works with all known object classes (loaded externals
\, abstractions \, ...);
