#N canvas 267 53 673 475 10;
#X obj 168 144 parentposition;
#X obj 115 90 gemhead;
#X obj 115 116 t a b;
#X obj 115 358 translateXYZ;
#X obj 164 179 unpack;
#X obj 214 179 unpack;
#X obj 171 208 /;
#X obj 221 208 /;
#X obj 172 236 * 2;
#X obj 175 261 - 1;
#X obj 225 261 - 1;
#X obj 176 286 * 4;
#X obj 222 236 * 2;
#X obj 226 285 * -4;
#X obj 143 393 \$1;
#X connect 0 0 4 0;
#X connect 0 1 5 0;
#X connect 1 0 2 0;
#X connect 2 0 3 0;
#X connect 2 1 0 0;
#X connect 3 0 14 0;
#X connect 4 0 6 0;
#X connect 4 1 7 0;
#X connect 5 0 6 1;
#X connect 5 1 7 1;
#X connect 6 0 8 0;
#X connect 7 0 12 0;
#X connect 8 0 9 0;
#X connect 9 0 11 0;
#X connect 10 0 13 0;
#X connect 11 0 3 1;
#X connect 12 0 10 0;
#X connect 13 0 3 2;
#X coords 0 0 1 1 32 50 0;
